<mxfile host="Electron" agent="Mozilla/5.0 (Macintosh; Intel Mac OS X 10_15_7) AppleWebKit/537.36 (KHTML, like Gecko) draw.io/26.1.1 Chrome/132.0.6834.210 Electron/34.3.3 Safari/537.36" version="26.1.1" pages="2">
  <diagram id="1zcTAVt1k4KSup7FvAfL" name="Roadmap">
    <mxGraphModel dx="9864" dy="5444" grid="0" gridSize="10" guides="1" tooltips="1" connect="1" arrows="1" fold="1" page="0" pageScale="1" pageWidth="3300" pageHeight="2339" math="0" shadow="0">
      <root>
        <mxCell id="3D7FDG2aXA9G618_Kong-0" />
        <mxCell id="3D7FDG2aXA9G618_Kong-1" parent="3D7FDG2aXA9G618_Kong-0" />
        <mxCell id="wGroBH12Sy7-OgBsN0fJ-4" value="" style="shape=rect;fillColor=#fff2cc;strokeColor=none;fontSize=24;html=1;whiteSpace=wrap;align=left;verticalAlign=top;spacing=5;rounded=0;" parent="3D7FDG2aXA9G618_Kong-1" vertex="1">
          <mxGeometry x="-2500" y="-1682.8" width="1610" height="196.8" as="geometry" />
        </mxCell>
        <mxCell id="wGroBH12Sy7-OgBsN0fJ-7" value="Сайт" style="rounded=0;whiteSpace=wrap;html=1;fillColor=#f5f5f5;fontColor=#333333;strokeColor=#666666;fontSize=18;" parent="3D7FDG2aXA9G618_Kong-1" vertex="1">
          <mxGeometry x="-2630" y="-1682.8" width="120" height="196.8" as="geometry" />
        </mxCell>
        <mxCell id="wGroBH12Sy7-OgBsN0fJ-9" value="Q2" style="shape=step;perimeter=stepPerimeter;whiteSpace=wrap;html=1;fixedSize=1;size=10;fillColor=#f5f5f5;strokeColor=#666666;fontSize=18;fontStyle=1;align=center;rounded=0;fontColor=#333333;" parent="3D7FDG2aXA9G618_Kong-1" vertex="1">
          <mxGeometry x="-860" y="-1780" width="1610" height="74.4" as="geometry" />
        </mxCell>
        <mxCell id="tKpiIrhWGHR_NGs2t0jh-16" value="" style="shape=rect;fillColor=#fff2cc;strokeColor=none;fontSize=24;html=1;whiteSpace=wrap;align=left;verticalAlign=top;spacing=5;rounded=0;" vertex="1" parent="3D7FDG2aXA9G618_Kong-1">
          <mxGeometry x="-2500" y="-1466.4" width="1610" height="196.8" as="geometry" />
        </mxCell>
        <mxCell id="tKpiIrhWGHR_NGs2t0jh-19" value="Онлайн-банк" style="rounded=0;whiteSpace=wrap;html=1;fillColor=#f5f5f5;fontColor=#333333;strokeColor=#666666;fontSize=18;" vertex="1" parent="3D7FDG2aXA9G618_Kong-1">
          <mxGeometry x="-2630" y="-1466.4" width="120" height="196.8" as="geometry" />
        </mxCell>
        <mxCell id="tKpiIrhWGHR_NGs2t0jh-20" value="" style="shape=rect;fillColor=#fff2cc;strokeColor=none;fontSize=24;html=1;whiteSpace=wrap;align=left;verticalAlign=top;spacing=5;rounded=0;" vertex="1" parent="3D7FDG2aXA9G618_Kong-1">
          <mxGeometry x="-2500" y="-1246" width="1610" height="196.8" as="geometry" />
        </mxCell>
        <mxCell id="tKpiIrhWGHR_NGs2t0jh-23" value="Сервис&lt;br&gt;уведомлений" style="rounded=0;whiteSpace=wrap;html=1;fillColor=#f5f5f5;fontColor=#333333;strokeColor=#666666;fontSize=18;" vertex="1" parent="3D7FDG2aXA9G618_Kong-1">
          <mxGeometry x="-2630" y="-1246" width="120" height="196.8" as="geometry" />
        </mxCell>
        <mxCell id="tKpiIrhWGHR_NGs2t0jh-24" value="" style="shape=rect;fillColor=#fff2cc;strokeColor=none;fontSize=24;html=1;whiteSpace=wrap;align=left;verticalAlign=top;spacing=5;rounded=0;" vertex="1" parent="3D7FDG2aXA9G618_Kong-1">
          <mxGeometry x="-2500" y="-1026" width="1610" height="196.8" as="geometry" />
        </mxCell>
        <mxCell id="tKpiIrhWGHR_NGs2t0jh-27" value="АБС" style="rounded=0;whiteSpace=wrap;html=1;fillColor=#f5f5f5;fontColor=#333333;strokeColor=#666666;fontSize=18;" vertex="1" parent="3D7FDG2aXA9G618_Kong-1">
          <mxGeometry x="-2630" y="-1026" width="120" height="196.8" as="geometry" />
        </mxCell>
        <mxCell id="tKpiIrhWGHR_NGs2t0jh-28" value="" style="shape=rect;fillColor=#fff2cc;strokeColor=none;fontSize=24;html=1;whiteSpace=wrap;align=left;verticalAlign=top;spacing=5;rounded=0;" vertex="1" parent="3D7FDG2aXA9G618_Kong-1">
          <mxGeometry x="-2500" y="-806" width="1610" height="196.8" as="geometry" />
        </mxCell>
        <mxCell id="tKpiIrhWGHR_NGs2t0jh-31" value="Infrastructure" style="rounded=0;whiteSpace=wrap;html=1;fillColor=#f5f5f5;fontColor=#333333;strokeColor=#666666;fontSize=18;" vertex="1" parent="3D7FDG2aXA9G618_Kong-1">
          <mxGeometry x="-2630" y="-806" width="120" height="196.8" as="geometry" />
        </mxCell>
        <mxCell id="tKpiIrhWGHR_NGs2t0jh-32" value="Q1" style="shape=step;perimeter=stepPerimeter;whiteSpace=wrap;html=1;fixedSize=1;size=10;fillColor=#f5f5f5;strokeColor=#666666;fontSize=18;fontStyle=1;align=center;rounded=0;fontColor=#333333;" vertex="1" parent="3D7FDG2aXA9G618_Kong-1">
          <mxGeometry x="-2500" y="-1780" width="1610" height="74.4" as="geometry" />
        </mxCell>
        <mxCell id="tKpiIrhWGHR_NGs2t0jh-33" value="Q3" style="shape=step;perimeter=stepPerimeter;whiteSpace=wrap;html=1;fixedSize=1;size=10;fillColor=#f5f5f5;strokeColor=#666666;fontSize=18;fontStyle=1;align=center;rounded=0;fontColor=#333333;" vertex="1" parent="3D7FDG2aXA9G618_Kong-1">
          <mxGeometry x="780" y="-1780" width="1610" height="74.4" as="geometry" />
        </mxCell>
        <mxCell id="tKpiIrhWGHR_NGs2t0jh-34" value="Q4" style="shape=step;perimeter=stepPerimeter;whiteSpace=wrap;html=1;fixedSize=1;size=10;fillColor=#f5f5f5;strokeColor=#666666;fontSize=18;fontStyle=1;align=center;rounded=0;fontColor=#333333;" vertex="1" parent="3D7FDG2aXA9G618_Kong-1">
          <mxGeometry x="2420" y="-1780" width="1610" height="74.4" as="geometry" />
        </mxCell>
        <mxCell id="tKpiIrhWGHR_NGs2t0jh-35" value="" style="shape=rect;fillColor=#fff2cc;strokeColor=none;fontSize=24;html=1;whiteSpace=wrap;align=left;verticalAlign=top;spacing=5;rounded=0;" vertex="1" parent="3D7FDG2aXA9G618_Kong-1">
          <mxGeometry x="-860" y="-1682.8" width="1610" height="196.8" as="geometry" />
        </mxCell>
        <mxCell id="tKpiIrhWGHR_NGs2t0jh-38" value="" style="shape=rect;fillColor=#fff2cc;strokeColor=none;fontSize=24;html=1;whiteSpace=wrap;align=left;verticalAlign=top;spacing=5;rounded=0;" vertex="1" parent="3D7FDG2aXA9G618_Kong-1">
          <mxGeometry x="-860" y="-1466.4" width="1610" height="196.8" as="geometry" />
        </mxCell>
        <mxCell id="tKpiIrhWGHR_NGs2t0jh-41" value="" style="shape=rect;fillColor=#fff2cc;strokeColor=none;fontSize=24;html=1;whiteSpace=wrap;align=left;verticalAlign=top;spacing=5;rounded=0;" vertex="1" parent="3D7FDG2aXA9G618_Kong-1">
          <mxGeometry x="-860" y="-1246" width="1610" height="196.8" as="geometry" />
        </mxCell>
        <mxCell id="tKpiIrhWGHR_NGs2t0jh-44" value="" style="shape=rect;fillColor=#fff2cc;strokeColor=none;fontSize=24;html=1;whiteSpace=wrap;align=left;verticalAlign=top;spacing=5;rounded=0;" vertex="1" parent="3D7FDG2aXA9G618_Kong-1">
          <mxGeometry x="-860" y="-1026" width="1610" height="196.8" as="geometry" />
        </mxCell>
        <mxCell id="tKpiIrhWGHR_NGs2t0jh-47" value="" style="shape=rect;fillColor=#fff2cc;strokeColor=none;fontSize=24;html=1;whiteSpace=wrap;align=left;verticalAlign=top;spacing=5;rounded=0;" vertex="1" parent="3D7FDG2aXA9G618_Kong-1">
          <mxGeometry x="-860" y="-806" width="1610" height="196.8" as="geometry" />
        </mxCell>
        <mxCell id="tKpiIrhWGHR_NGs2t0jh-50" value="" style="shape=rect;fillColor=#fff2cc;strokeColor=none;fontSize=24;html=1;whiteSpace=wrap;align=left;verticalAlign=top;spacing=5;rounded=0;" vertex="1" parent="3D7FDG2aXA9G618_Kong-1">
          <mxGeometry x="770" y="-1682.8" width="1610" height="196.8" as="geometry" />
        </mxCell>
        <mxCell id="tKpiIrhWGHR_NGs2t0jh-53" value="" style="shape=rect;fillColor=#fff2cc;strokeColor=none;fontSize=24;html=1;whiteSpace=wrap;align=left;verticalAlign=top;spacing=5;rounded=0;" vertex="1" parent="3D7FDG2aXA9G618_Kong-1">
          <mxGeometry x="770" y="-1466.4" width="1610" height="196.8" as="geometry" />
        </mxCell>
        <mxCell id="tKpiIrhWGHR_NGs2t0jh-56" value="" style="shape=rect;fillColor=#fff2cc;strokeColor=none;fontSize=24;html=1;whiteSpace=wrap;align=left;verticalAlign=top;spacing=5;rounded=0;" vertex="1" parent="3D7FDG2aXA9G618_Kong-1">
          <mxGeometry x="770" y="-1246" width="1610" height="196.8" as="geometry" />
        </mxCell>
        <mxCell id="tKpiIrhWGHR_NGs2t0jh-59" value="" style="shape=rect;fillColor=#fff2cc;strokeColor=none;fontSize=24;html=1;whiteSpace=wrap;align=left;verticalAlign=top;spacing=5;rounded=0;" vertex="1" parent="3D7FDG2aXA9G618_Kong-1">
          <mxGeometry x="770" y="-1026" width="1610" height="196.8" as="geometry" />
        </mxCell>
        <mxCell id="tKpiIrhWGHR_NGs2t0jh-62" value="" style="shape=rect;fillColor=#fff2cc;strokeColor=none;fontSize=24;html=1;whiteSpace=wrap;align=left;verticalAlign=top;spacing=5;rounded=0;" vertex="1" parent="3D7FDG2aXA9G618_Kong-1">
          <mxGeometry x="770" y="-806" width="1610" height="196.8" as="geometry" />
        </mxCell>
        <mxCell id="tKpiIrhWGHR_NGs2t0jh-65" value="" style="shape=rect;fillColor=#fff2cc;strokeColor=none;fontSize=24;html=1;whiteSpace=wrap;align=left;verticalAlign=top;spacing=5;rounded=0;" vertex="1" parent="3D7FDG2aXA9G618_Kong-1">
          <mxGeometry x="2420" y="-1684.3999999999999" width="1610" height="196.8" as="geometry" />
        </mxCell>
        <mxCell id="tKpiIrhWGHR_NGs2t0jh-68" value="" style="shape=rect;fillColor=#fff2cc;strokeColor=none;fontSize=24;html=1;whiteSpace=wrap;align=left;verticalAlign=top;spacing=5;rounded=0;" vertex="1" parent="3D7FDG2aXA9G618_Kong-1">
          <mxGeometry x="2420" y="-1468" width="1610" height="196.8" as="geometry" />
        </mxCell>
        <mxCell id="tKpiIrhWGHR_NGs2t0jh-71" value="" style="shape=rect;fillColor=#fff2cc;strokeColor=none;fontSize=24;html=1;whiteSpace=wrap;align=left;verticalAlign=top;spacing=5;rounded=0;" vertex="1" parent="3D7FDG2aXA9G618_Kong-1">
          <mxGeometry x="2420" y="-1247.6" width="1610" height="196.8" as="geometry" />
        </mxCell>
        <mxCell id="tKpiIrhWGHR_NGs2t0jh-74" value="" style="shape=rect;fillColor=#fff2cc;strokeColor=none;fontSize=24;html=1;whiteSpace=wrap;align=left;verticalAlign=top;spacing=5;rounded=0;" vertex="1" parent="3D7FDG2aXA9G618_Kong-1">
          <mxGeometry x="2420" y="-1027.6" width="1610" height="196.8" as="geometry" />
        </mxCell>
        <mxCell id="tKpiIrhWGHR_NGs2t0jh-77" value="" style="shape=rect;fillColor=#fff2cc;strokeColor=none;fontSize=24;html=1;whiteSpace=wrap;align=left;verticalAlign=top;spacing=5;rounded=0;" vertex="1" parent="3D7FDG2aXA9G618_Kong-1">
          <mxGeometry x="2420" y="-807.6" width="1610" height="196.8" as="geometry" />
        </mxCell>
        <mxCell id="tKpiIrhWGHR_NGs2t0jh-80" value="&lt;font&gt;Списки депозитов - Реализация эндпоинта на бэкенде сайта со списками депозитов и ставками&lt;/font&gt;" style="shape=rect;fillColor=#ffe6cc;strokeColor=#d79b00;fontSize=15;html=1;whiteSpace=wrap;align=left;verticalAlign=top;spacing=5;rounded=0;" vertex="1" parent="3D7FDG2aXA9G618_Kong-1">
          <mxGeometry x="-2482" y="-1632" width="515" height="50" as="geometry" />
        </mxCell>
        <mxCell id="tKpiIrhWGHR_NGs2t0jh-86" value="Списки депозитов&amp;nbsp;- Реализация пользовательского интерфейса со списками депозитов ставками на фронте сайта" style="shape=rect;fillColor=#ffe6cc;strokeColor=#d79b00;fontSize=15;html=1;whiteSpace=wrap;align=left;verticalAlign=top;spacing=5;rounded=0;" vertex="1" parent="3D7FDG2aXA9G618_Kong-1">
          <mxGeometry x="-2482" y="-1571" width="515" height="50" as="geometry" />
        </mxCell>
        <mxCell id="tKpiIrhWGHR_NGs2t0jh-87" value="Создание заявки - Реализация эндпоинта на бэкенде сайта для создания заявки" style="shape=rect;fillColor=#ffe6cc;strokeColor=#d79b00;fontSize=15;html=1;whiteSpace=wrap;align=left;verticalAlign=top;spacing=5;rounded=0;" vertex="1" parent="3D7FDG2aXA9G618_Kong-1">
          <mxGeometry x="-1956" y="-1668" width="1054" height="50" as="geometry" />
        </mxCell>
        <mxCell id="tKpiIrhWGHR_NGs2t0jh-88" value="Создание заявки&amp;nbsp;- Реализация пользовательского интерфейса сайта для создания заявки" style="shape=rect;fillColor=#ffe6cc;strokeColor=#d79b00;fontSize=15;html=1;whiteSpace=wrap;align=left;verticalAlign=top;spacing=5;rounded=0;" vertex="1" parent="3D7FDG2aXA9G618_Kong-1">
          <mxGeometry x="-1956" y="-1609" width="1054" height="50" as="geometry" />
        </mxCell>
        <mxCell id="tKpiIrhWGHR_NGs2t0jh-89" value="Создание заявки&amp;nbsp;- Публикация ивента получения заявки в Kafka после создания заявки" style="shape=rect;fillColor=#ffe6cc;strokeColor=#d79b00;fontSize=15;html=1;whiteSpace=wrap;align=left;verticalAlign=top;spacing=5;rounded=0;" vertex="1" parent="3D7FDG2aXA9G618_Kong-1">
          <mxGeometry x="-1956" y="-1549" width="1054" height="50" as="geometry" />
        </mxCell>
        <mxCell id="tKpiIrhWGHR_NGs2t0jh-101" value="Сервис уведомлений - Реализация микросервиса уведомлений" style="shape=rect;fillColor=#ffe6cc;strokeColor=#d79b00;fontSize=18;html=1;whiteSpace=wrap;align=left;verticalAlign=top;spacing=5;rounded=0;" vertex="1" parent="3D7FDG2aXA9G618_Kong-1">
          <mxGeometry x="784" y="-1202" width="1120" height="50" as="geometry" />
        </mxCell>
        <mxCell id="tKpiIrhWGHR_NGs2t0jh-102" value="Сервис уведомлений - Интеграция микросервиса и СМС шлюза" style="shape=rect;fillColor=#ffe6cc;strokeColor=#d79b00;fontSize=18;html=1;whiteSpace=wrap;align=left;verticalAlign=top;spacing=5;rounded=0;" vertex="1" parent="3D7FDG2aXA9G618_Kong-1">
          <mxGeometry x="1901" y="-1135" width="460" height="50" as="geometry" />
        </mxCell>
        <mxCell id="tKpiIrhWGHR_NGs2t0jh-109" value="АБС - Оптимизация каждой операции до за мс" style="shape=rect;fillColor=#ffe6cc;strokeColor=#d79b00;fontSize=18;html=1;whiteSpace=wrap;align=left;verticalAlign=top;spacing=5;rounded=0;" vertex="1" parent="3D7FDG2aXA9G618_Kong-1">
          <mxGeometry x="-2486" y="-952.6" width="1584" height="50" as="geometry" />
        </mxCell>
        <mxCell id="tKpiIrhWGHR_NGs2t0jh-110" value="АБС - Добавление тайм-аутов до 1 сек каждой операции" style="shape=rect;fillColor=#ffe6cc;strokeColor=#d79b00;fontSize=18;html=1;whiteSpace=wrap;align=left;verticalAlign=top;spacing=5;rounded=0;" vertex="1" parent="3D7FDG2aXA9G618_Kong-1">
          <mxGeometry x="-849" y="-952.6" width="1593" height="50" as="geometry" />
        </mxCell>
        <mxCell id="tKpiIrhWGHR_NGs2t0jh-111" value="АБС - Реализация консьюмера создания заявок онлайн-банком и сайтом" style="shape=rect;fillColor=#ffe6cc;strokeColor=#d79b00;fontSize=18;html=1;whiteSpace=wrap;align=left;verticalAlign=top;spacing=5;rounded=0;" vertex="1" parent="3D7FDG2aXA9G618_Kong-1">
          <mxGeometry x="780" y="-954.2" width="775" height="50" as="geometry" />
        </mxCell>
        <mxCell id="tKpiIrhWGHR_NGs2t0jh-117" value="Доступность 99.9% за счёт переключение ЦОДов" style="shape=rect;fillColor=#ffe6cc;strokeColor=#d79b00;fontSize=18;html=1;whiteSpace=wrap;align=left;verticalAlign=top;spacing=5;rounded=0;" vertex="1" parent="3D7FDG2aXA9G618_Kong-1">
          <mxGeometry x="787" y="-738" width="858" height="50" as="geometry" />
        </mxCell>
        <mxCell id="tKpiIrhWGHR_NGs2t0jh-118" value="Шифрование трафика (между клиентом, сайтом, онлайн-банком, АБС)" style="shape=rect;fillColor=#ffe6cc;strokeColor=#d79b00;fontSize=18;html=1;whiteSpace=wrap;align=left;verticalAlign=top;spacing=5;rounded=0;" vertex="1" parent="3D7FDG2aXA9G618_Kong-1">
          <mxGeometry x="1655" y="-738" width="710" height="50" as="geometry" />
        </mxCell>
        <mxCell id="tKpiIrhWGHR_NGs2t0jh-119" value="Документация архитектуры и бизнес процессов" style="shape=rect;fillColor=#ffe6cc;strokeColor=#d79b00;fontSize=18;html=1;whiteSpace=wrap;align=left;verticalAlign=top;spacing=5;rounded=0;" vertex="1" parent="3D7FDG2aXA9G618_Kong-1">
          <mxGeometry x="2443" y="-1611" width="1227" height="50" as="geometry" />
        </mxCell>
        <mxCell id="tKpiIrhWGHR_NGs2t0jh-127" value="Управление IT. Над интернет-банком работают две команды: внутри банка этим занимается 10 (2 разраба, 3 тестера, 2 фронта, 1 дизайнер, 1 ПМ, 1 аналитик) человек и ещё 10 человек работает на стороне подрядчика. Ещё внутри направления есть команда, которая занимается непосредственно АБС — автоматизированной банковской системой. Этот отдел состоит из 20 человек." style="text;whiteSpace=wrap;html=1;" vertex="1" parent="3D7FDG2aXA9G618_Kong-1">
          <mxGeometry x="-2500" y="-1878" width="550" height="80" as="geometry" />
        </mxCell>
        <mxCell id="tKpiIrhWGHR_NGs2t0jh-128" value="&lt;font&gt;Списки депозитов - Реализация эндпоинта доступных депозитов на бэкенде онлайн-банка&amp;nbsp;&lt;/font&gt;" style="shape=rect;fillColor=#ffe6cc;strokeColor=#d79b00;fontSize=15;html=1;whiteSpace=wrap;align=left;verticalAlign=top;spacing=5;rounded=0;" vertex="1" parent="3D7FDG2aXA9G618_Kong-1">
          <mxGeometry x="-846" y="-1426" width="515" height="50" as="geometry" />
        </mxCell>
        <mxCell id="tKpiIrhWGHR_NGs2t0jh-129" value="Списки депозитов&amp;nbsp;- Реализация пользовательского интерфейса доступных депозитов на фронте онлайн-банка" style="shape=rect;fillColor=#ffe6cc;strokeColor=#d79b00;fontSize=15;html=1;whiteSpace=wrap;align=left;verticalAlign=top;spacing=5;rounded=0;" vertex="1" parent="3D7FDG2aXA9G618_Kong-1">
          <mxGeometry x="-846" y="-1360" width="515" height="50" as="geometry" />
        </mxCell>
        <mxCell id="tKpiIrhWGHR_NGs2t0jh-130" value="Списки депозитов&amp;nbsp;- Реализация алгоритма вычисления персональных ставок для клиентов" style="shape=rect;fillColor=#ffe6cc;strokeColor=#d79b00;fontSize=15;html=1;whiteSpace=wrap;align=left;verticalAlign=top;spacing=5;rounded=0;" vertex="1" parent="3D7FDG2aXA9G618_Kong-1">
          <mxGeometry x="-308" y="-1453" width="1046" height="50" as="geometry" />
        </mxCell>
        <mxCell id="tKpiIrhWGHR_NGs2t0jh-131" value="Создание заявки - Реализация эндпоинта онлайн-банку для подачи заявки клиентом" style="shape=rect;fillColor=#ffe6cc;strokeColor=#d79b00;fontSize=15;html=1;whiteSpace=wrap;align=left;verticalAlign=top;spacing=5;rounded=0;" vertex="1" parent="3D7FDG2aXA9G618_Kong-1">
          <mxGeometry x="-308" y="-1393" width="1045" height="50" as="geometry" />
        </mxCell>
        <mxCell id="tKpiIrhWGHR_NGs2t0jh-132" value="Создание заявки&amp;nbsp;- Публикация ивента получения заявки в Kafka после создания заявки" style="shape=rect;fillColor=#ffe6cc;strokeColor=#d79b00;fontSize=15;html=1;whiteSpace=wrap;align=left;verticalAlign=top;spacing=5;rounded=0;" vertex="1" parent="3D7FDG2aXA9G618_Kong-1">
          <mxGeometry x="-308" y="-1333" width="1045" height="50" as="geometry" />
        </mxCell>
        <mxCell id="tKpiIrhWGHR_NGs2t0jh-134" value="Документация архитектуры и бизнес процессов" style="shape=rect;fillColor=#ffe6cc;strokeColor=#d79b00;fontSize=18;html=1;whiteSpace=wrap;align=left;verticalAlign=top;spacing=5;rounded=0;" vertex="1" parent="3D7FDG2aXA9G618_Kong-1">
          <mxGeometry x="2446" y="-1398" width="1227" height="50" as="geometry" />
        </mxCell>
        <mxCell id="tKpiIrhWGHR_NGs2t0jh-135" value="Документация архитектуры и бизнес процессов" style="shape=rect;fillColor=#ffe6cc;strokeColor=#d79b00;fontSize=18;html=1;whiteSpace=wrap;align=left;verticalAlign=top;spacing=5;rounded=0;" vertex="1" parent="3D7FDG2aXA9G618_Kong-1">
          <mxGeometry x="2449" y="-1172.6" width="1227" height="50" as="geometry" />
        </mxCell>
        <mxCell id="tKpiIrhWGHR_NGs2t0jh-136" value="Документация архитектуры и бизнес процессов" style="shape=rect;fillColor=#ffe6cc;strokeColor=#d79b00;fontSize=18;html=1;whiteSpace=wrap;align=left;verticalAlign=top;spacing=5;rounded=0;" vertex="1" parent="3D7FDG2aXA9G618_Kong-1">
          <mxGeometry x="2449" y="-959.9999999999999" width="1227" height="50" as="geometry" />
        </mxCell>
        <mxCell id="tKpiIrhWGHR_NGs2t0jh-137" value="Документация архитектуры и бизнес процессов" style="shape=rect;fillColor=#ffe6cc;strokeColor=#d79b00;fontSize=18;html=1;whiteSpace=wrap;align=left;verticalAlign=top;spacing=5;rounded=0;" vertex="1" parent="3D7FDG2aXA9G618_Kong-1">
          <mxGeometry x="2440" y="-738" width="1235" height="50" as="geometry" />
        </mxCell>
      </root>
    </mxGraphModel>
  </diagram>
  <diagram id="6faDem5PxRRIMGQd80wj" name="Roadmap_change">
    <mxGraphModel grid="1" page="1" gridSize="10" guides="1" tooltips="1" connect="1" arrows="1" fold="1" pageScale="1" pageWidth="3300" pageHeight="2339" math="0" shadow="0">
      <root>
        <mxCell id="0" />
        <mxCell id="1" parent="0" />
        <mxCell id="QlwB00z0-otb056kdUWZ-19" value="" style="shape=rect;fillColor=#fff2cc;strokeColor=none;fontSize=24;html=1;whiteSpace=wrap;align=left;verticalAlign=top;spacing=5;rounded=0;" vertex="1" parent="1">
          <mxGeometry x="-2500" y="-530" width="1620" height="190" as="geometry" />
        </mxCell>
        <mxCell id="QlwB00z0-otb056kdUWZ-18" value="" style="shape=rect;fillColor=#fff2cc;strokeColor=none;fontSize=24;html=1;whiteSpace=wrap;align=left;verticalAlign=top;spacing=5;rounded=0;" vertex="1" parent="1">
          <mxGeometry x="-2500" y="-730" width="1620" height="180" as="geometry" />
        </mxCell>
        <mxCell id="QlwB00z0-otb056kdUWZ-17" value="" style="shape=rect;fillColor=#fff2cc;strokeColor=none;fontSize=24;html=1;whiteSpace=wrap;align=left;verticalAlign=top;spacing=5;rounded=0;" vertex="1" parent="1">
          <mxGeometry x="-2500" y="-930" width="1610" height="180" as="geometry" />
        </mxCell>
        <mxCell id="QlwB00z0-otb056kdUWZ-3" value="" style="shape=rect;fillColor=#fff2cc;strokeColor=none;fontSize=24;html=1;whiteSpace=wrap;align=left;verticalAlign=top;spacing=5;rounded=0;" vertex="1" parent="1">
          <mxGeometry x="-2500" y="-1146.8" width="1610" height="196.8" as="geometry" />
        </mxCell>
        <mxCell id="QlwB00z0-otb056kdUWZ-4" value="T1 - API сервиса интеграции депозитов АБС" style="shape=rect;fillColor=#ffe6cc;strokeColor=#d79b00;fontSize=18;html=1;whiteSpace=wrap;align=left;verticalAlign=top;spacing=5;rounded=0;" vertex="1" parent="1">
          <mxGeometry x="-2480" y="-1120" width="390" height="50" as="geometry" />
        </mxCell>
        <mxCell id="QlwB00z0-otb056kdUWZ-5" value="T2 - Передача файлов на SFTP-сервер" style="shape=rect;fillColor=#ffe6cc;strokeColor=#d79b00;fontSize=18;html=1;whiteSpace=wrap;align=center;verticalAlign=top;spacing=5;rounded=0;" vertex="1" parent="1">
          <mxGeometry x="-2120" y="-1040" width="550" height="60" as="geometry" />
        </mxCell>
        <mxCell id="QlwB00z0-otb056kdUWZ-6" value="АБС&lt;div&gt;Сервис интеграции депозитов&lt;/div&gt;" style="rounded=0;whiteSpace=wrap;html=1;fillColor=#f5f5f5;fontColor=#333333;strokeColor=#666666;fontSize=18;" vertex="1" parent="1">
          <mxGeometry x="-2630" y="-1146.8" width="120" height="196.8" as="geometry" />
        </mxCell>
        <mxCell id="QlwB00z0-otb056kdUWZ-7" value="SFTP" style="rounded=0;whiteSpace=wrap;html=1;fillColor=#f5f5f5;fontColor=#333333;strokeColor=#666666;fontSize=18;" vertex="1" parent="1">
          <mxGeometry x="-2630" y="-930" width="120" height="180" as="geometry" />
        </mxCell>
        <mxCell id="QlwB00z0-otb056kdUWZ-8" value="Q2" style="shape=step;perimeter=stepPerimeter;whiteSpace=wrap;html=1;fixedSize=1;size=10;fillColor=#f5f5f5;strokeColor=#666666;fontSize=18;fontStyle=1;align=center;rounded=0;fontColor=#333333;" vertex="1" parent="1">
          <mxGeometry x="-2500" y="-1240" width="1610" height="74.4" as="geometry" />
        </mxCell>
        <mxCell id="QlwB00z0-otb056kdUWZ-11" value="T5 - Вывод ставок пользователю системы колл-центра" style="shape=rect;fillColor=#ffe6cc;strokeColor=#d79b00;fontSize=18;html=1;whiteSpace=wrap;align=center;verticalAlign=top;spacing=5;rounded=0;" vertex="1" parent="1">
          <mxGeometry x="-1860" y="-640" width="940" height="50" as="geometry" />
        </mxCell>
        <mxCell id="QlwB00z0-otb056kdUWZ-12" value="T4 - Получение ставок через API интеграции АБС" style="shape=rect;fillColor=#ffe6cc;strokeColor=#d79b00;fontSize=18;html=1;whiteSpace=wrap;align=center;verticalAlign=top;spacing=5;rounded=0;" vertex="1" parent="1">
          <mxGeometry x="-2060" y="-720" width="480" height="60" as="geometry" />
        </mxCell>
        <mxCell id="QlwB00z0-otb056kdUWZ-13" value="T6 - Получение файлов с SFTP для операторов партнера" style="shape=rect;fillColor=#ffe6cc;strokeColor=#d79b00;fontSize=18;html=1;whiteSpace=wrap;align=center;verticalAlign=top;spacing=5;rounded=0;" vertex="1" parent="1">
          <mxGeometry x="-1560" y="-470" width="640" height="50" as="geometry" />
        </mxCell>
        <mxCell id="QlwB00z0-otb056kdUWZ-14" value="Система колл-центра" style="rounded=0;whiteSpace=wrap;html=1;fillColor=#f5f5f5;fontColor=#333333;strokeColor=#666666;fontSize=18;" vertex="1" parent="1">
          <mxGeometry x="-2630" y="-730" width="120" height="180" as="geometry" />
        </mxCell>
        <mxCell id="QlwB00z0-otb056kdUWZ-15" value="Система&amp;nbsp; партнерского колл-центра" style="rounded=0;whiteSpace=wrap;html=1;fillColor=#f5f5f5;fontColor=#333333;strokeColor=#666666;fontSize=18;" vertex="1" parent="1">
          <mxGeometry x="-2630" y="-530" width="120" height="190" as="geometry" />
        </mxCell>
        <mxCell id="QlwB00z0-otb056kdUWZ-16" value="T3 - Развернуть SFTP сервер" style="shape=rect;fillColor=#ffe6cc;strokeColor=#d79b00;fontSize=18;html=1;whiteSpace=wrap;align=center;verticalAlign=top;spacing=5;rounded=0;" vertex="1" parent="1">
          <mxGeometry x="-2400" y="-910" width="280" height="60" as="geometry" />
        </mxCell>
      </root>
    </mxGraphModel>
  </diagram>
</mxfile>
